<svg width="55" height="42" viewBox="0 0 55 42" fill="none" xmlns="http://www.w3.org/2000/svg">
<rect width="55" height="41" transform="translate(0 1)" fill="white"/>
<path d="M10.1459 1.5H4.66854C2.48426 1.5 1.0322 3.75967 1.93975 5.74648L15.942 36.4C16.9809 38.6744 20.183 38.7542 21.334 36.5344L24.7968 29.8562C25.2386 29.0041 25.246 27.9921 24.8168 27.1336L12.8292 3.15836C12.321 2.14201 11.2822 1.5 10.1459 1.5Z" fill="#0D0D0D" stroke="black"/>
<path d="M21.5052 5.27416L36.0927 36.3686C37.1157 38.5492 40.1616 38.696 41.3895 36.6239L45.6659 29.4076C46.1858 28.5302 46.2244 27.4488 45.7683 26.5365L33.8292 2.65836C33.321 1.64201 32.2822 1 31.1459 1H24.2211C22.0236 1 20.5718 3.28471 21.5052 5.27416Z" fill="#0D0D0D" stroke="black"/>
<circle cx="49" cy="7" r="6" fill="#FF6006"/>
</svg>
